<svg width="128" height="128" viewBox="0 0 128 128" xmlns="http://www.w3.org/2000/svg">
  <defs>
    <linearGradient id="grad3" x1="0%" y1="0%" x2="100%" y2="100%">
      <stop offset="0%" style="stop-color:#007bff;stop-opacity:1" />
      <stop offset="30%" style="stop-color:#0056b3;stop-opacity:1" />
      <stop offset="70%" style="stop-color:#003d82;stop-opacity:1" />
      <stop offset="100%" style="stop-color:#002851;stop-opacity:1" />
    </linearGradient>
    <filter id="shadow">
      <feDropShadow dx="2" dy="2" stdDeviation="3" flood-opacity="0.3"/>
    </filter>
  </defs>
  <rect width="128" height="128" rx="20" fill="url(#grad3)" filter="url(#shadow)"/>
  
  <!-- Robot head -->
  <rect x="32" y="32" width="64" height="48" rx="12" fill="white" opacity="0.95"/>
  
  <!-- Eyes -->
  <circle cx="48" cy="48" r="6" fill="#007bff"/>
  <circle cx="80" cy="48" r="6" fill="#007bff"/>
  <circle cx="48" cy="48" r="3" fill="white"/>
  <circle cx="80" cy="48" r="3" fill="white"/>
  
  <!-- Mouth -->
  <path d="M40 64 Q64 72 88 64" stroke="#007bff" stroke-width="4" fill="none" stroke-linecap="round"/>
  
  <!-- Antenna -->
  <rect x="60" y="20" width="8" height="12" rx="4" fill="white" opacity="0.9"/>
  <circle cx="64" cy="16" r="4" fill="#00ff88"/>
  
  <!-- Body details -->
  <rect x="44" y="84" width="40" height="24" rx="6" fill="white" opacity="0.8"/>
  <rect x="52" y="88" width="8" height="4" rx="2" fill="#007bff"/>
  <rect x="68" y="88" width="8" height="4" rx="2" fill="#007bff"/>
  <rect x="52" y="96" width="24" height="2" rx="1" fill="#007bff" opacity="0.6"/>
  <rect x="52" y="100" width="16" height="2" rx="1" fill="#007bff" opacity="0.6"/>
</svg>
